<svg xmlns="http://www.w3.org/2000/svg" width="676.16" height="288.561" viewBox="0 0 676.16 288.561">
    <defs>
        <style>
            .cls-1,.cls-4{fill:none}.cls-1,.cls-2,.cls-3,.cls-4{stroke:#ccc}.cls-1,.cls-2,.cls-3{stroke-linecap:round;stroke-linejoin:round}.cls-1,.cls-2{stroke-width:2px}.cls-2,.cls-3{fill:#fff}.cls-3{stroke-width:3px}
        </style>
    </defs>
    <g id="Group_3179" data-name="Group 3179" transform="translate(-76 -70.029)">
        <path id="Rectangle_966" d="M0 0h60.733v32.538H0z" class="cls-1" data-name="Rectangle 966" transform="translate(266.905 177.361)"/>
        <path id="Rectangle_967" d="M0 0h274.204v102.224H0z" class="cls-1" data-name="Rectangle 967" transform="translate(321.232 215.319)"/>
        <g id="Group_3169" data-name="Group 3169" transform="translate(562.681 155.607)">
            <path id="Rectangle_968" d="M0 0h4.157v11.635H0z" class="cls-1" data-name="Rectangle 968" transform="rotate(7.754 -167.78 23.296)"/>
            <path id="Path_1142" d="M608.852 199.06l1.51 4.318 2.609-3.758z" class="cls-1" data-name="Path 1142" transform="translate(-608.812 -164.682)"/>
            <path id="Rectangle_969" d="M0 0h4.157v18.415H0z" class="cls-1" data-name="Rectangle 969" transform="rotate(7.754 -31.914 32.507)"/>
            <path id="Rectangle_970" d="M0 0h4.157v1.578H0z" class="cls-1" data-name="Rectangle 970" transform="rotate(7.754 -31.914 32.507)"/>
            <path id="Path_1143" d="M612.4 166.926l-1.415-.193-2.18 16.013" class="cls-1" data-name="Path 1143" transform="translate(-608.809 -162.391)"/>
            <path id="Rectangle_971" d="M0 0h2.283v4.773H0z" class="cls-1" data-name="Rectangle 971" transform="rotate(7.754 2.833 41.803)"/>
        </g>
        <g id="Group_3170" data-name="Group 3170" transform="translate(548.13 159.653)">
            <path id="Rectangle_972" d="M0 0h4.157v23.956H0z" class="cls-1" data-name="Rectangle 972" transform="rotate(-8.133 49.505 -2.934)"/>
            <path id="Path_1144" d="M597.778 199.4l2.634 3.74 1.481-4.328z" class="cls-1" data-name="Path 1144" transform="translate(-593.476 -168.709)"/>
            <path id="Rectangle_973" d="M0 0h4.157v1.997H0z" class="cls-1" data-name="Rectangle 973" transform="rotate(-8.133 35.466 -1.932)"/>
            <path id="Rectangle_974" d="M2.079 0a2.079 2.079 0 0 1 2.078 2.079v2.375H0V2.079A2.079 2.079 0 0 1 2.079 0z" class="cls-1" data-name="Rectangle 974" transform="rotate(-8.11 4.15 .294)"/>
        </g>
        <path id="Rectangle_975" d="M0 0h64.942v42.092H0z" class="cls-1" data-name="Rectangle 975" transform="translate(245.316 215.319)"/>
        <rect id="Rectangle_976" width="3.758" height="5.51" class="cls-1" data-name="Rectangle 976" rx="1.879" transform="translate(510.722 198.824)"/>
        <path id="Rectangle_977" d="M0 0h123.871a5.4 5.4 0 0 1-5.4 5.4H5.4A5.4 5.4 0 0 1 0 0z" class="cls-1" data-name="Rectangle 977" transform="translate(361.804 204.495)"/>
        <path id="Path_1145" d="M532.588 100.476A12.486 12.486 0 0 0 520.1 87.99H386.326a12.486 12.486 0 0 0-12.486 12.486v66.888h158.748z" class="cls-1" data-name="Path 1145" transform="translate(-29.474 -1.202)"/>
        <g id="Group_3171" data-name="Group 3171" transform="translate(348.876 91.297)">
            <path id="Path_1146" d="M378.694 167.708V100.82a7.985 7.985 0 0 1 7.976-7.977h133.775a7.985 7.985 0 0 1 7.977 7.977v66.888z" class="cls-1" data-name="Path 1146" transform="translate(-378.694 -92.843)"/>
        </g>
        <path id="Path_1147" d="M386.326 191.007H520.1a12.486 12.486 0 0 0 12.485-12.486v-5.1H373.84v5.1a12.486 12.486 0 0 0 12.486 12.486z" class="cls-1" data-name="Path 1147" transform="translate(-29.474 -7.257)"/>
        <path id="Path_1148" d="M391.183 220.492H246.038v5.42H389.2" class="cls-1" data-name="Path 1148" transform="translate(-20.416 -10.594)"/>
        <path id="Path_1149" d="M516.268 220.492h145.159v5.42H518.264" class="cls-1" data-name="Path 1149" transform="translate(-39.569 -10.594)"/>
        <path id="Path_1150" d="M511.431 226.646c-4.675-19.61-32.369-69.216-56.56-69.216s-51.885 49.606-56.56 69.216c-4.572 19.182 5.488 33.6 25.76 33.6h61.6c20.272 0 30.329-14.418 25.76-33.6z" class="cls-1" data-name="Path 1150" transform="translate(-31.131 -6.124)"/>
        <path id="Path_1151" d="M505.606 254.767c-4.194 5.312-11.016 8.119-19.729 8.119h-61.6c-8.713 0-15.535-2.807-19.729-8.119-4.31-5.458-5.523-13.331-3.415-22.17" class="cls-1" data-name="Path 1151" transform="translate(-31.337 -11.452)"/>
        <path id="Path_1152" d="M511.667 216.988a85.192 85.192 0 0 1 5.262 14.5 34.37 34.37 0 0 1 .982 9.437" class="cls-1" data-name="Path 1152" transform="translate(-39.243 -10.345)"/>
        <g id="Group_3172" data-name="Group 3172" transform="translate(356.75 254.122)">
            <path id="Path_1153" d="M432.568 268.089l-45.4 84.467H393l45.4-84.467z" class="cls-1" data-name="Path 1153" transform="translate(-387.169 -268.089)"/>
            <path id="Path_1154" d="M477.3 268.089l45.4 84.467h-5.826l-45.4-84.467z" class="cls-1" data-name="Path 1154" transform="translate(-393.144 -268.089)"/>
            <path id="Rectangle_978" d="M0 0h5.713v84.467H0z" class="cls-1" data-name="Rectangle 978" transform="translate(61.92)"/>
        </g>
        <path id="Line_271" d="M0 0h91.525" class="cls-1" data-name="Line 271" transform="translate(375.909 302.944)"/>
        <circle id="Ellipse_74" cx="2.255" cy="2.255" r="2.255" class="cls-1" data-name="Ellipse 74" transform="translate(487.647 173.828)"/>
        <path id="Rectangle_979" d="M8.786 0h.861a8.786 8.786 0 0 1 8.786 8.786H0A8.786 8.786 0 0 1 8.786 0z" class="cls-1" data-name="Rectangle 979" transform="translate(503.114 201.113)"/>
        <path id="Path_1155" d="M557.255 217.456h.607a8.165 8.165 0 0 0 4.977-1.692" class="cls-1" data-name="Path 1155" transform="translate(-42.474 -10.259)"/>
        <path id="Path_1156" d="M737.705 298.65h-57.726l7.967 56.073h41.792z" class="cls-1" data-name="Path 1156" transform="translate(-51.172 -16.133)"/>
        <path id="Rectangle_980" d="M0 0h45.749v22.85H0z" class="cls-1" data-name="Rectangle 980" transform="translate(254.913 224.94)"/>
        <path id="Rectangle_981" d="M3.609 0h21.016a3.609 3.609 0 0 1 3.609 3.609H0A3.609 3.609 0 0 1 3.609 0z" class="cls-1" data-name="Rectangle 981" transform="translate(263.67 234.561)"/>
        <path id="Rectangle_982" d="M0 0h64.942v42.092H0z" class="cls-1" data-name="Rectangle 982" transform="translate(245.316 257.411)"/>
        <path id="Rectangle_983" d="M0 0h45.749v22.85H0z" class="cls-1" data-name="Rectangle 983" transform="translate(254.913 267.032)"/>
        <path id="Rectangle_984" d="M3.609 0h21.016a3.609 3.609 0 0 1 3.609 3.609H0A3.609 3.609 0 0 1 3.609 0z" class="cls-1" data-name="Rectangle 984" transform="translate(263.67 276.653)"/>
        <path id="Rectangle_985" d="M0 0h5.562v123.27H0z" class="cls-1" data-name="Rectangle 985" transform="translate(239.754 215.319)"/>
        <path id="Rectangle_986" d="M0 0h5.562v123.27H0z" class="cls-1" data-name="Rectangle 986" transform="translate(310.258 215.319)"/>
        <path id="Rectangle_987" d="M0 0h5.562v123.27H0z" class="cls-1" data-name="Rectangle 987" transform="translate(600.948 215.319)"/>
        <path id="Path_1157" d="M687.118 297.744l-4.225-5.562 8.777-5.142 4.781 1.409 5.2-2.583v6.316l9.157 5.562z" class="cls-1" data-name="Path 1157" transform="translate(-51.379 -15.227)"/>
        <path id="Line_272" d="M3.58 0L0 1.672" class="cls-1" data-name="Line 272" transform="translate(641.492 273.221)"/>
        <path id="Line_273" d="M0 0v2.137" class="cls-1" data-name="Line 273" transform="translate(650.272 276.954)"/>
        <path id="Path_1158" d="M703.081 288.357l7.4-3.783 5.592 6.164" class="cls-1" data-name="Path 1158" transform="translate(-52.81 -15.136)"/>
        <path id="Path_1159" d="M714.738 288.448l5.587-2.583 4.66 6.316-2.706 5.562" class="cls-1" data-name="Path 1159" transform="translate(-53.636 -15.227)"/>
        <path id="Path_1160" d="M723.467 289.481l8.9-.836 3.872 9.3" class="cls-1" data-name="Path 1160" transform="translate(-54.255 -15.424)"/>
        <path id="Path_1161" d="M697.485 352.119h30.527l5.371-40.363" class="cls-1" data-name="Path 1161" transform="translate(-52.413 -17.062)"/>
        <path id="Rectangle_988" d="M0 0h57.726v3.801H0z" class="cls-1" data-name="Rectangle 988" transform="translate(628.806 282.516)"/>
        <circle id="Ellipse_75" cx="25.831" cy="25.831" r="25.831" class="cls-1" data-name="Ellipse 75" transform="translate(533.943 71.029)"/>
        <circle id="Ellipse_76" cx="21.059" cy="21.059" r="21.059" class="cls-1" data-name="Ellipse 76" transform="translate(538.714 75.8)"/>
        <path id="Line_274" d="M0 13.88V0" class="cls-2" data-name="Line 274" transform="translate(559.773 82.98)"/>
        <path id="Line_275" d="M0 0l4.907 4.907" class="cls-3" data-name="Line 275" transform="translate(559.773 96.859)"/>
        <g id="Group_3173" data-name="Group 3173" transform="translate(540.657 77.74)">
            <path id="Path_1162" d="M603.378 115.594a.9.9 0 0 1 .894-.911.912.912 0 0 1 .911.9.9.9 0 0 1-.9.9.9.9 0 0 1-.905-.889zm-6.422-.532a.9.9 0 0 1-.487-1.173.892.892 0 0 1 1.173-.5.911.911 0 0 1 .5 1.182.913.913 0 0 1-.84.559.988.988 0 0 1-.346-.068zm13.457-.532a.888.888 0 0 1 .479-1.173.894.894 0 0 1 1.181.478.905.905 0 0 1-.487 1.182.753.753 0 0 1-.343.072.886.886 0 0 1-.83-.559zm-19.662-3.589a.9.9 0 0 1-.009-1.281.91.91 0 0 1 1.28 0 .9.9 0 0 1 0 1.272.88.88 0 0 1-.64.27.9.9 0 0 1-.631-.262zm25.751-.082a.9.9 0 0 1-.008-1.271.9.9 0 0 1 1.28-.009.91.91 0 0 1 0 1.28.922.922 0 0 1-.64.262.9.9 0 0 1-.634-.262zm-29.919-6.1a.9.9 0 0 1 .479-1.182.893.893 0 0 1 1.181.478.9.9 0 0 1-.487 1.182.886.886 0 0 1-.343.072.9.9 0 0 1-.83-.547zm34.141.378a.9.9 0 0 1-.487-1.181.9.9 0 0 1 1.181-.488.9.9 0 0 1 .487 1.182.9.9 0 0 1-.838.55.944.944 0 0 1-.343-.06zm-35.624-7.69v-.073a.892.892 0 0 1 .9-.9.9.9 0 0 1 .9.9v.072a.9.9 0 0 1-.9.9.9.9 0 0 1-.9-.899zm36.43-.109a.9.9 0 0 1 .9-.9.892.892 0 0 1 .9.893.9.9 0 0 1-.9.9.891.891 0 0 1-.895-.893zm-34.492-6.106a.894.894 0 0 1-.5-1.173.9.9 0 0 1 1.183-.487.9.9 0 0 1 .487 1.173.9.9 0 0 1-.83.559.763.763 0 0 1-.335-.072zm33.166-.514a.907.907 0 0 1 .488-1.182.908.908 0 0 1 1.181.487.9.9 0 0 1-.487 1.173.823.823 0 0 1-.352.072.9.9 0 0 1-.825-.55zM590.7 85.134a.9.9 0 0 1 0-1.271.89.89 0 0 1 1.271-.009.908.908 0 0 1 0 1.28.9.9 0 0 1-.641.262.9.9 0 0 1-.63-.262zm25.751-.027a.89.89 0 0 1 0-1.272.891.891 0 0 1 1.272 0 .9.9 0 0 1 0 1.272.87.87 0 0 1-.64.262.863.863 0 0 1-.635-.262zM596.4 80.886a.907.907 0 0 1 .5-1.182.9.9 0 0 1 1.174.487.906.906 0 0 1-.487 1.182.893.893 0 0 1-.343.072.917.917 0 0 1-.844-.559zm14.432.478a.906.906 0 0 1-.487-1.182.9.9 0 0 1 1.173-.487.9.9 0 0 1 .5 1.173.908.908 0 0 1-.839.559.9.9 0 0 1-.35-.062zm-7.531-2.21a.9.9 0 0 1 .9-.9.9.9 0 0 1 .9.9.9.9 0 0 1-.9.9.9.9 0 0 1-.901-.9z" class="cls-4" data-name="Path 1162" transform="translate(-585.105 -78.252)"/>
        </g>
        <g id="Group_3174" data-name="Group 3174" transform="translate(396.844 117.328)">
            <path id="Line_276" d="M0 0l8.719 8.719" class="cls-2" data-name="Line 276" transform="translate(0 7.042)"/>
            <path id="Line_277" d="M0 0l8.719 8.719" class="cls-2" data-name="Line 277" transform="translate(22.843 7.042)"/>
            <path id="Line_278" d="M0 0l17.111 17.111" class="cls-2" data-name="Line 278" transform="translate(30.069 2.845)"/>
            <path id="Line_279" d="M0 0l7.49 7.49" class="cls-2" data-name="Line 279" transform="translate(46.301 7.656)"/>
            <path id="Line_280" d="M0 0l22.802 22.802" class="cls-2" data-name="Line 280" transform="translate(4.38)"/>
        </g>
        <g id="Group_3176" data-name="Group 3176" transform="translate(546.8 182.472)">
            <path id="Path_1163" d="M615.06 194.556l-2.094 24.1h-16.151l-2.273-24.1z" class="cls-1" data-name="Path 1163" transform="translate(-591.917 -191.227)"/>
            <g id="Group_3175" data-name="Group 3175" transform="translate(9.464 3.329)">
                <path id="Line_281" d="M.685 24.098L0 0" class="cls-1" data-name="Line 281"/>
                <path id="Line_282" d="M0 24.098L.685 0" class="cls-1" data-name="Line 282" transform="translate(6.155)"/>
            </g>
            <path id="Line_283" d="M0 0h18.526" class="cls-1" data-name="Line 283" transform="translate(3.71 7.595)"/>
            <path id="Line_284" d="M0 0h18.526" class="cls-1" data-name="Line 284" transform="translate(3.71 12.553)"/>
            <path id="Line_285" d="M0 0h17.493" class="cls-1" data-name="Line 285" transform="translate(4.227 17.511)"/>
            <path id="Line_286" d="M0 0h16.557" class="cls-1" data-name="Line 286" transform="translate(4.695 22.469)"/>
            <rect id="Rectangle_989" width="25.768" height="3.329" class="cls-1" data-name="Rectangle 989" rx="1.664"/>
        </g>
        <path id="Rectangle_990" d="M0 0h60.733v33.816H0z" class="cls-1" data-name="Rectangle 990" transform="translate(263.67 176.083)"/>
        <g id="Group_3177" data-name="Group 3177" transform="translate(267.804 173.527)">
            <rect id="Rectangle_991" width="4.811" height="7.667" class="cls-1" data-name="Rectangle 991" rx="2.405"/>
            <rect id="Rectangle_992" width="4.811" height="7.667" class="cls-1" data-name="Rectangle 992" rx="2.405" transform="translate(9.531)"/>
            <rect id="Rectangle_993" width="4.811" height="7.667" class="cls-1" data-name="Rectangle 993" rx="2.405" transform="translate(19.062)"/>
            <rect id="Rectangle_994" width="4.811" height="7.667" class="cls-1" data-name="Rectangle 994" rx="2.405" transform="translate(28.593)"/>
            <rect id="Rectangle_995" width="4.811" height="7.667" class="cls-1" data-name="Rectangle 995" rx="2.405" transform="translate(38.124)"/>
            <rect id="Rectangle_996" width="4.811" height="7.667" class="cls-1" data-name="Rectangle 996" rx="2.405" transform="translate(47.654)"/>
        </g>
        <path id="Line_287" d="M506.681 0H0" class="cls-1" data-name="Line 287" transform="translate(189.971 338.589)"/>
        <path id="Line_288" d="M0 0h170.328" class="cls-1" data-name="Line 288" transform="translate(580.833 195.025)"/>
        <path id="Line_289" d="M0 0h113.353" class="cls-1" data-name="Line 289" transform="translate(77 357.589)"/>
        <path id="Line_290" d="M0 0h34.705" class="cls-1" data-name="Line 290" transform="translate(134.843 338.589)"/>
        <path id="Line_291" d="M0 0h34.705" class="cls-1" data-name="Line 291" transform="translate(716.456 338.589)"/>
        <path id="Path_1164" d="M628.346 330.575h9.28v-9.939" class="cls-1" data-name="Path 1164" transform="translate(-47.513 -17.692)"/>
        <path id="Line_292" d="M0 19.242V0" class="cls-1" data-name="Line 292" transform="translate(590.113 215.319)"/>
        <path id="Line_293" d="M0 0v27.103" class="cls-1" data-name="Line 293" transform="translate(326.861 247.79)"/>
    </g>
</svg>
