<svg xmlns="http://www.w3.org/2000/svg" width="19.473" height="17.568" viewBox="0 0 19.473 17.568">
    <defs>
        <style>
            .cls-1{fill:#999}
        </style>
    </defs>
    <path id="Path_675" d="M2063.657 2688.769v-2.71a1.058 1.058 0 1 1 2.117 0v2.71a1.058 1.058 0 1 1-2.117 0zm9.1 1.058a1.058 1.058 0 0 0 1.058-1.058v-2.71a1.058 1.058 0 1 0-2.116 0v2.71a1.058 1.058 0 0 0 1.06 1.058zm5.715-2.421v14.315a.846.846 0 0 1-.846.847h-17.78a.847.847 0 0 1-.847-.847v-14.315a.917.917 0 0 1 .847-.925h1.979a.847.847 0 0 1 0 1.693h-1.133v3.6h16.086v-3.6h-1.132a.847.847 0 1 1 0-1.693h1.979a.917.917 0 0 1 .848.926zm-1.693 13.468v-7.62h-16.086v7.62zm-9.379-12.7h2.672a.847.847 0 1 0 0-1.693h-2.672a.847.847 0 0 0 0 1.693z" class="cls-1" data-name="Path 675" transform="translate(-2059 -2685)"/>
</svg>
